<?xml version="1.0" encoding="UTF-8"?>
<svg width="512" height="512" viewBox="0 0 512 512" fill="none" xmlns="http://www.w3.org/2000/svg">
    <rect width="512" height="512" rx="100" fill="#007BFF"/>
    <path d="M256 128C207.4 128 168 167.4 168 216C168 264.6 207.4 304 256 304C304.6 304 344 264.6 344 216C344 167.4 304.6 128 256 128ZM256 272C225.1 272 200 246.9 200 216C200 185.1 225.1 160 256 160C286.9 160 312 185.1 312 216C312 246.9 286.9 272 256 272Z" fill="white"/>
    <path d="M256 320C192.7 320 128 352.3 128 416V448H384V416C384 352.3 319.3 320 256 320ZM352 416H160C160 371.8 208.9 352 256 352C303.1 352 352 371.8 352 416Z" fill="white"/>
</svg> 